<?xml version="1.0" encoding="utf-8"?>
<svg data-name="Layer 1" width="974" height="729.15132" viewBox="172.003 -20.936 881.561 774.223"
  xmlns="http://www.w3.org/2000/svg" xmlns:bx="https://boxy-svg.com">
  <rect x="307.191" y="87.096" width="544.375" height="96.362" rx="15" ry="15" style="fill: rgb(248, 248, 248);" />
  <rect x="251.322" y="167.118" width="657.191" height="96.362" rx="15" ry="15" style="fill: rgb(248, 248, 248);" />
  <rect x="380.698" y="236.686" width="612.997" height="96.362" rx="15" ry="15" style="fill: rgb(248, 248, 248);" />
  <path style="stroke-miterlimit: 1; fill: rgb(248, 248, 248);"
    d="M 269.377 322.698 H 914.112 A 15 15 0 0 1 929.112 337.698 V 417.256 A 50 50 0 0 1 879.112 467.256 H 234.377 A 15 15 0 0 1 219.377 452.256 V 372.698 A 50 50 0 0 1 269.377 322.698 Z"
    bx:shape="rect 219.377 322.698 709.735 144.558 50 15 50 15 1@042e8b22" />
  <path style="stroke-miterlimit: 1; fill: rgb(248, 248, 248);"
    d="M 336.855 461.304 H 846.189 A 15 15 0 0 1 861.189 476.304 V 517.677 A 35 35 0 0 1 826.189 552.677 H 336.855 A 15 15 0 0 1 321.855 537.677 V 476.304 A 15 15 0 0 1 336.855 461.304 Z"
    bx:shape="rect 321.855 461.304 539.334 91.373 15 15 35 15 1@6e085229" />
  <path style="stroke-miterlimit: 1; fill: rgb(248, 248, 248);"
    d="M 299.13 543.474 H 909.53 A 50 50 0 0 1 959.53 593.474 V 638.494 A 15 15 0 0 1 944.53 653.494 H 299.13 A 25 25 0 0 1 274.13 628.494 V 568.474 A 25 25 0 0 1 299.13 543.474 Z"
    bx:shape="rect 274.13 543.474 685.4 110.02 25 50 15 25 1@fc832ffd" />
  <path
    d="M 787.354 173.533 L 783.355 173.533 L 783.355 63.987 C 783.355 28.971 754.969 0.585 719.953 0.585 L 487.866 0.585 C 452.85 0.585 424.464 28.971 424.464 63.987 L 424.464 664.961 C 424.464 699.977 452.85 728.363 487.866 728.363 L 719.953 728.363 C 754.968 728.363 783.355 699.978 783.355 664.962 L 783.355 251.509 L 787.353 251.509 L 787.354 173.533 Z"
    style="fill: rgb(188, 188, 188);" />
  <path
    d="M 769.86 64.43 L 769.86 664.52 C 769.86 690.67 748.661 711.87 722.51 711.87 L 489.31 711.87 C 463.159 711.87 441.96 690.67 441.96 664.52 L 441.96 64.43 C 441.96 38.279 463.159 17.08 489.31 17.08 L 517.6 17.08 C 511.579 31.875 522.457 48.058 538.43 48.07 L 671.39 48.07 C 687.363 48.058 698.24 31.875 692.22 17.08 L 722.51 17.08 C 748.661 17.08 769.859 38.279 769.86 64.43 Z"
    fill="#fff" />
  <path
    d="M 501.741 72.737 C 477.107 72.737 461.711 99.403 474.028 120.737 C 479.744 130.637 490.308 136.737 501.74 136.737 L 501.741 136.737 C 526.374 136.737 541.77 110.07 529.453 88.737 C 523.737 78.836 513.173 72.737 501.741 72.737 Z"
    fill="#f2f2f2" />
  <path
    d="M 734.079 131.737 L 566.079 131.737 C 559.921 131.737 556.072 125.07 559.151 119.737 C 560.58 117.261 563.221 115.737 566.079 115.737 L 734.079 115.737 C 740.238 115.737 744.087 122.403 741.007 127.737 C 739.578 130.212 736.937 131.737 734.079 131.737 Z"
    fill="#f2f2f2" />
  <path
    d="M 619.079 97.737 L 566.079 97.737 C 559.921 97.737 556.072 91.07 559.151 85.737 C 560.58 83.261 563.221 81.737 566.079 81.737 L 619.079 81.737 C 625.238 81.737 629.087 88.403 626.007 93.737 C 624.578 96.212 621.937 97.737 619.079 97.737 Z"
    fill="#f2f2f2" />
  <path
    d="M 501.741 206.737 C 477.107 206.737 461.711 233.403 474.028 254.737 C 479.744 264.637 490.308 270.737 501.74 270.737 L 501.741 270.737 C 526.374 270.737 541.77 244.07 529.453 222.737 C 523.737 212.836 513.173 206.737 501.741 206.737 Z"
    fill="#f2f2f2" />
  <path
    d="M 734.079 265.737 L 566.079 265.737 C 559.921 265.737 556.072 259.07 559.151 253.737 C 560.58 251.261 563.221 249.737 566.079 249.737 L 734.079 249.737 C 740.238 249.737 744.087 256.403 741.007 261.737 C 739.578 264.212 736.937 265.737 734.079 265.737 Z"
    fill="#f2f2f2" />
  <path
    d="M 619.079 231.737 L 566.079 231.737 C 559.921 231.737 556.072 225.07 559.151 219.737 C 560.58 217.261 563.221 215.737 566.079 215.737 L 619.079 215.737 C 625.238 215.737 629.087 222.403 626.007 227.737 C 624.578 230.212 621.937 231.737 619.079 231.737 Z"
    fill="#f2f2f2" />
  <path
    d="M 501.741 474.737 C 477.107 474.737 461.711 501.403 474.028 522.737 C 479.744 532.637 490.308 538.737 501.74 538.737 L 501.741 538.737 C 526.374 538.737 541.77 512.07 529.453 490.737 C 523.737 480.836 513.173 474.737 501.741 474.737 Z"
    fill="#f2f2f2" />
  <path
    d="M 734.079 533.737 L 566.079 533.737 C 559.921 533.737 556.072 527.07 559.151 521.737 C 560.58 519.261 563.221 517.737 566.079 517.737 L 734.079 517.737 C 740.238 517.737 744.087 524.403 741.007 529.737 C 739.578 532.212 736.937 533.737 734.079 533.737 Z"
    fill="#f2f2f2" />
  <path
    d="M 619.079 499.737 L 566.079 499.737 C 559.921 499.737 556.072 493.07 559.151 487.737 C 560.58 485.261 563.221 483.737 566.079 483.737 L 619.079 483.737 C 625.238 483.737 629.087 490.403 626.007 495.737 C 624.578 498.212 621.937 499.737 619.079 499.737 Z"
    fill="#f2f2f2" />
  <path
    d="M 501.741 608.737 C 477.107 608.737 461.711 635.403 474.028 656.737 C 479.744 666.637 490.308 672.737 501.74 672.737 L 501.741 672.737 C 526.374 672.737 541.77 646.07 529.453 624.737 C 523.737 614.836 513.173 608.737 501.741 608.737 Z"
    fill="#f2f2f2" />
  <path
    d="M 734.079 667.737 L 566.079 667.737 C 559.921 667.737 556.072 661.07 559.151 655.737 C 560.58 653.261 563.221 651.737 566.079 651.737 L 734.079 651.737 C 740.238 651.737 744.087 658.403 741.007 663.737 C 739.578 666.212 736.937 667.737 734.079 667.737 Z"
    fill="#f2f2f2" />
  <path
    d="M 619.079 633.737 L 566.079 633.737 C 559.921 633.737 556.072 627.07 559.151 621.737 C 560.58 619.261 563.221 617.737 566.079 617.737 L 619.079 617.737 C 625.238 617.737 629.087 624.403 626.007 629.737 C 624.578 632.212 621.937 633.737 619.079 633.737 Z"
    fill="#f2f2f2" />
  <path
    d="M 798.91 449.737 L 412.91 449.737 C 403.801 449.726 396.42 442.345 396.41 433.237 L 396.41 309.237 C 396.42 300.128 403.801 292.747 412.91 292.737 L 798.91 292.737 C 808.018 292.747 815.4 300.128 815.41 309.237 L 815.41 433.237 C 815.4 442.345 808.018 449.726 798.91 449.737 Z"
    fill="#fff" />
  <path
    d="M 501.741 339.237 C 477.107 339.237 461.711 365.903 474.028 387.237 C 479.744 397.138 490.308 403.237 501.74 403.237 L 501.741 403.237 C 526.374 403.237 541.77 376.57 529.453 355.237 C 523.737 345.336 513.173 339.237 501.741 339.237 Z"
    fill="#c5c5c5" />
  <path
    d="M 734.079 398.237 L 566.079 398.237 C 559.921 398.237 556.072 391.57 559.151 386.237 C 560.58 383.762 563.221 382.237 566.079 382.237 L 734.079 382.237 C 740.238 382.237 744.087 388.904 741.007 394.237 C 739.578 396.712 736.937 398.237 734.079 398.237 Z"
    fill="#ccc" />
  <path
    d="M 619.079 364.237 L 566.079 364.237 C 559.921 364.237 556.072 357.57 559.151 352.237 C 560.58 349.762 563.221 348.237 566.079 348.237 L 619.079 348.237 C 625.238 348.237 629.087 354.904 626.007 360.237 C 624.578 362.712 621.937 364.237 619.079 364.237 Z"
    fill="#ccc" />
  <path
    d="M 798.91 449.737 L 412.91 449.737 C 403.801 449.726 396.42 442.345 396.41 433.237 L 396.41 309.237 C 396.42 300.128 403.801 292.747 412.91 292.737 L 798.91 292.737 C 808.018 292.747 815.4 300.128 815.41 309.237 L 815.41 433.237 C 815.4 442.345 808.018 449.726 798.91 449.737 Z M 412.91 293.737 C 404.354 293.746 397.42 300.68 397.41 309.237 L 397.41 433.237 C 397.42 441.793 404.354 448.727 412.91 448.737 L 798.91 448.737 C 807.466 448.727 814.4 441.793 814.41 433.237 L 814.41 309.237 C 814.4 300.68 807.466 293.746 798.91 293.737 L 412.91 293.737 Z"
    fill="#3f3d56" />
  <path id="a4f85a93-5584-48fc-9a4d-d7e2ab78dfd5-476" data-name="Path 395"
    d="M 498.704 384.527 C 497.862 384.528 497.042 384.255 496.368 383.75 L 496.326 383.719 L 487.526 376.987 C 485.139 375.153 485.632 371.423 488.414 370.272 C 489.702 369.739 491.177 369.932 492.285 370.78 L 497.985 375.151 L 511.454 357.579 C 512.768 355.865 515.221 355.541 516.935 356.855 L 516.936 356.856 L 516.852 356.972 L 516.938 356.856 C 518.649 358.171 518.973 360.623 517.661 362.337 L 501.818 382.997 C 501.075 383.962 499.925 384.525 498.708 384.522 L 498.704 384.527 Z"
    fill="#fff" />
  <path
    d="M 867.624 93.213 H 873.397 V 104.758 H 884.942 V 110.531 H 873.397 V 122.076 H 867.624 V 110.531 H 856.079 V 104.758 H 867.624 Z"
    style="paint-order: fill; fill-rule: evenodd; stroke-width: 2px; fill: rgb(144, 144, 144); stroke: rgb(144, 144, 144);"
    bx:shape="cross 856.079 93.213 28.863 28.863 5.773 5.773 0.5 1@0563bef3" />
  <rect x="835.487" y="152.488" width="21.925" height="5.974"
    style="stroke-width: 2px; fill: rgb(144, 144, 144); stroke: rgb(144, 144, 144);" />
  <rect x="811.769" y="136.669" width="21.925" height="5.974"
    style="fill: rgb(144, 144, 144); stroke: rgb(144, 144, 144);" />
  <path
    d="M 308.124 603.348 H 313.897 V 614.893 H 325.442 V 620.666 H 313.897 V 632.211 H 308.124 V 620.666 H 296.579 V 614.893 H 308.124 Z"
    style="stroke-width: 2px; fill: rgb(144, 144, 144); stroke: rgb(144, 144, 144);"
    bx:shape="cross 296.579 603.348 28.863 28.863 5.773 5.773 0.5 1@0923e03e" />
</svg>